<?xml version="1.0" encoding="utf-8"?>
<!-- Generator: Adobe Illustrator 24.1.1, SVG Export Plug-In . SVG Version: 6.00 Build 0)  -->
<svg version="1.1" id="Layer_1" xmlns="http://www.w3.org/2000/svg" xmlns:xlink="http://www.w3.org/1999/xlink" x="0px" y="0px"
	 viewBox="0 0 512 512" style="enable-background:new 0 0 512 512;" xml:space="preserve">
<g>
	<path d="M256,56.9c109.8,0,199.1,89.4,199.1,199.1c0,109.7-89.3,199.1-199.1,199.1c-109.8,0-199.1-89.3-199.1-199.1
		S146.2,56.9,256,56.9 M256,0C114.6,0,0,114.6,0,256c0,141.4,114.6,256,256,256c141.4,0,256-114.6,256-256C512,114.6,397.4,0,256,0z
		 M375,137.1c-3.7-3.6-9-5.1-14-3.6L191.7,182c-4.7,1.4-8.4,5-9.7,9.8L133.4,361c-1.4,5-0.1,10.3,3.6,14c2.7,2.7,6.3,4.2,10.1,4.2
		l3.9-0.6L320.3,330c4.7-1.3,8.4-5,9.7-9.8L378.6,151C380,146.1,378.6,140.8,375,137.1z M167.8,344.2l39.3-137l97.7,97.7
		L167.8,344.2z"/>
</g>
</svg>
